<?xml version="1.0" encoding="UTF-8"?>
<svg xmlns="http://www.w3.org/2000/svg" xmlns:xlink="http://www.w3.org/1999/xlink" width="98px" height="100px" viewBox="0 0 98 100">
  <!-- Generator: Sketch 58 (84663) - https://sketch.com -->
  <title>CUPS OF COFFEE_drawing</title>
  <desc>Created with Sketch.</desc>
  <g id="FINAL" stroke="none" stroke-width="1" fill="none" fill-rule="evenodd">
    <g id="1440_Homepage_2" transform="translate(-220.000000, -6754.000000)">
      <g id="MOVIFY-IN-NUMBERS" transform="translate(0.000000, 6444.000000)">
        <g id="COFFEEE" transform="translate(167.000000, 310.000000)">
          <g id="CUPS-OF-COFFEE_drawing" transform="translate(53.000000, 0.000000)">
            <path d="M0,58.8290172 C0,81.5669609 18.5881071,100 41.5180081,100 C64.4476072,100 83.0357143,81.5669609 83.0357143,58.8290172 C83.0357143,54.8342789 82.4599684,50.973966 81.3899929,47.3214286 L1.64602326,47.3214286 C0.575745846,50.973966 0,54.8342789 0,58.8290172" id="Fill-1" fill="#E6332A" fill-rule="evenodd"></path>
            <path d="M83.0355561,74.1071429 C79.0906318,74.1071429 75.8928571,70.909439 75.8928571,66.9646022 C75.8928571,63.0194489 79.0906318,59.8214286 83.0355561,59.8214286 C86.9804803,59.8214286 90.1785714,63.0194489 90.1785714,66.9646022 C90.1785714,70.909439 86.9804803,74.1071429 83.0355561,74.1071429 M82.5892857,51.7857143 C74.4528031,51.7857143 67.8571429,58.5813143 67.8571429,66.9641264 C67.8571429,75.3472571 74.4528031,82.1428571 82.5892857,82.1428571 C90.7257684,82.1428571 97.3214286,75.3472571 97.3214286,66.9641264 C97.3214286,58.5813143 90.7257684,51.7857143 82.5892857,51.7857143" id="Fill-4" fill="#1D1F30" fill-rule="evenodd"></path>
            <path d="M33.9285714,0 C33.9285714,9.59827645 22.3214286,9.59827645 22.3214286,19.1963042 C22.3214286,28.7945807 33.9285714,28.7945807 33.9285714,38.3928571" id="Stroke-1" stroke="#1D1F30" stroke-width="7"></path>
            <path d="M51.7857143,0.892857143 C51.7857143,10.4911336 40.1785714,10.4911336 40.1785714,20.0891614 C40.1785714,29.6874378 51.7857143,29.6874378 51.7857143,39.2857143" id="Stroke-1" stroke="#1D1F30" stroke-width="7"></path>
          </g>
        </g>
      </g>
    </g>
  </g>
</svg>
