<?xml version="1.0" encoding="UTF-8"?>
<svg xmlns="http://www.w3.org/2000/svg" xmlns:xlink="http://www.w3.org/1999/xlink" width="101px" height="82px" viewBox="0 0 101 82">
  <!-- Generator: Sketch 58 (84663) - https://sketch.com -->
  <title>NATIONALITIES_drawing</title>
  <desc>Created with Sketch.</desc>
  <g id="FINAL" stroke="none" stroke-width="1" fill="none" fill-rule="evenodd">
    <g id="1440_Homepage_2" transform="translate(-672.000000, -6774.000000)">
      <g id="MOVIFY-IN-NUMBERS" transform="translate(0.000000, 6444.000000)">
        <g id="MOVIFYERS" transform="translate(641.000000, 330.000000)">
          <g id="NATIONALITIES_drawing" transform="translate(31.000000, 0.000000)">
            <g id="USERS-ICON">
              <path d="M35.4787996,39.4439332 C15.9884408,39.5796761 0.299135769,55.3795762 0.435659181,74.7341921 L71.0170534,74.2427029 C70.8803572,54.8880871 54.9693312,39.3081902 35.4787996,39.4439332" id="Fill-1" fill="#E6332A"></path>
              <path d="M53.3714838,18.6835592 C53.3714838,29.0022191 45.0066391,37.3671035 34.6880282,37.3671035 C24.3694172,37.3671035 16.0043952,29.0022191 16.0043952,18.6835592 C16.0043952,8.36489923 24.3694172,1.48642006e-05 34.6880282,1.48642006e-05 C45.0066391,1.48642006e-05 53.3714838,8.36489923 53.3714838,18.6835592" id="Fill-4" fill="#252739"></path>
              <path d="M65.1452905,46.7097411 C45.6549317,46.8454841 29.9656267,62.6453841 30.1021501,82 L100.683544,81.5085109 C100.546848,62.153895 84.6358221,46.5739981 65.1452905,46.7097411" id="Fill-1" fill="#252739"></path>
              <path d="M83.0379747,25.9493671 C83.0379747,36.268027 74.67313,44.6329114 64.3545191,44.6329114 C54.0359081,44.6329114 45.6708861,36.268027 45.6708861,25.9493671 C45.6708861,15.6307072 54.0359081,7.26582278 64.3545191,7.26582278 C74.67313,7.26582278 83.0379747,15.6307072 83.0379747,25.9493671" id="Fill-4" stroke="#FFFFFF" stroke-width="3" fill="#E6332A"></path>
            </g>
          </g>
        </g>
      </g>
    </g>
  </g>
</svg>
