<?xml version="1.0" encoding="UTF-8"?>
<svg xmlns="http://www.w3.org/2000/svg" xmlns:xlink="http://www.w3.org/1999/xlink" width="320px" height="975px" viewBox="0 0 320 975" version="1.1">
  <!-- Generator: Sketch 58 (84663) - https://sketch.com -->
  <title>Group</title>
  <desc>Created with Sketch.</desc>
  <g id="FINAL" stroke="none" stroke-width="1" fill="none" fill-rule="evenodd">
    <g id="Contact_1440" transform="translate(-503.000000, -1127.000000)">
      <g id="ENTER-DETAILS" transform="translate(-78.000000, 1127.000000)">
        <g id="Group" transform="translate(581.000000, 0.000000)">
          <g id="dots-grid" opacity="0.380766369" fill="#FFFFFF">
            <circle id="Oval" cx="10" cy="460" r="10"></circle>
            <circle id="Oval-Copy-3" cx="10" cy="410" r="10"></circle>
            <circle id="Oval-Copy-4" cx="10" cy="110" r="10"></circle>
            <circle id="Oval-Copy-5" cx="10" cy="60" r="10"></circle>
            <circle id="Oval-Copy-6" cx="10" cy="510" r="10"></circle>
            <circle id="Oval-Copy-7" cx="10" cy="360" r="10"></circle>
            <circle id="Oval-Copy-8" cx="10" cy="310" r="10"></circle>
            <circle id="Oval-Copy-9" cx="10" cy="10" r="10"></circle>
            <circle id="Oval-Copy-10" cx="10" cy="260" r="10"></circle>
            <circle id="Oval-Copy-11" cx="10" cy="210" r="10"></circle>
            <circle id="Oval-Copy-12" cx="10" cy="160" r="10"></circle>
            <circle id="Oval" cx="60" cy="460" r="10"></circle>
            <circle id="Oval-Copy-3" cx="60" cy="410" r="10"></circle>
            <circle id="Oval-Copy-4" cx="60" cy="110" r="10"></circle>
            <circle id="Oval-Copy-5" cx="60" cy="60" r="10"></circle>
            <circle id="Oval-Copy-6" cx="60" cy="510" r="10"></circle>
            <circle id="Oval-Copy-7" cx="60" cy="360" r="10"></circle>
            <circle id="Oval-Copy-8" cx="60" cy="310" r="10"></circle>
            <circle id="Oval-Copy-9" cx="60" cy="10" r="10"></circle>
            <circle id="Oval-Copy-10" cx="60" cy="260" r="10"></circle>
            <circle id="Oval-Copy-11" cx="60" cy="210" r="10"></circle>
            <circle id="Oval-Copy-12" cx="60" cy="160" r="10"></circle>
            <circle id="Oval" cx="110" cy="460" r="10"></circle>
            <circle id="Oval-Copy-3" cx="110" cy="410" r="10"></circle>
            <circle id="Oval-Copy-4" cx="110" cy="110" r="10"></circle>
            <circle id="Oval-Copy-5" cx="110" cy="60" r="10"></circle>
            <circle id="Oval-Copy-6" cx="110" cy="510" r="10"></circle>
            <circle id="Oval-Copy-7" cx="110" cy="360" r="10"></circle>
            <circle id="Oval-Copy-8" cx="110" cy="310" r="10"></circle>
            <circle id="Oval-Copy-9" cx="110" cy="10" r="10"></circle>
            <circle id="Oval-Copy-10" cx="110" cy="260" r="10"></circle>
            <circle id="Oval-Copy-11" cx="110" cy="210" r="10"></circle>
            <circle id="Oval-Copy-12" cx="110" cy="160" r="10"></circle>
            <circle id="Oval" cx="160" cy="460" r="10"></circle>
            <circle id="Oval-Copy-3" cx="160" cy="410" r="10"></circle>
            <circle id="Oval-Copy-4" cx="160" cy="110" r="10"></circle>
            <circle id="Oval-Copy-5" cx="160" cy="60" r="10"></circle>
            <circle id="Oval-Copy-6" cx="160" cy="510" r="10"></circle>
            <circle id="Oval-Copy-7" cx="160" cy="360" r="10"></circle>
            <circle id="Oval-Copy-8" cx="160" cy="310" r="10"></circle>
            <circle id="Oval-Copy-9" cx="160" cy="10" r="10"></circle>
            <circle id="Oval-Copy-10" cx="160" cy="260" r="10"></circle>
            <circle id="Oval-Copy-11" cx="160" cy="210" r="10"></circle>
            <circle id="Oval-Copy-12" cx="160" cy="160" r="10"></circle>
            <circle id="Oval" cx="260" cy="510" r="10"></circle>
            <circle id="Oval-Copy-3" cx="260" cy="460" r="10"></circle>
            <circle id="Oval-Copy-4" cx="260" cy="110" r="10"></circle>
            <circle id="Oval-Copy-5" cx="260" cy="60" r="10"></circle>
            <circle id="Oval-Copy-6" cx="260" cy="560" r="10"></circle>
            <circle id="Oval-Copy-7" cx="260" cy="410" r="10"></circle>
            <circle id="Oval-Copy-8" cx="260" cy="360" r="10"></circle>
            <circle id="Oval-Copy-9" cx="260" cy="10" r="10"></circle>
            <circle id="Oval-Copy-10" cx="260" cy="310" r="10"></circle>
            <circle id="Oval-Copy-11" cx="260" cy="210" r="10"></circle>
            <circle id="Oval-Copy-12" cx="260" cy="160" r="10"></circle>
            <circle id="Oval" cx="210" cy="460" r="10"></circle>
            <circle id="Oval-Copy-3" cx="210" cy="410" r="10"></circle>
            <circle id="Oval-Copy-4" cx="210" cy="110" r="10"></circle>
            <circle id="Oval-Copy-5" cx="210" cy="60" r="10"></circle>
            <circle id="Oval-Copy-6" cx="210" cy="510" r="10"></circle>
            <circle id="Oval-Copy-6" cx="210" cy="559" r="10"></circle>
            <circle id="Oval-Copy-7" cx="210" cy="360" r="10"></circle>
            <circle id="Oval-Copy-8" cx="210" cy="310" r="10"></circle>
            <circle id="Oval-Copy-9" cx="210" cy="10" r="10"></circle>
            <circle id="Oval-Copy-10" cx="210" cy="260" r="10"></circle>
            <circle id="Oval-Copy-11" cx="210" cy="210" r="10"></circle>
            <circle id="Oval-Copy-12" cx="210" cy="160" r="10"></circle>
            <circle id="Oval" cx="310" cy="410" r="10"></circle>
            <circle id="Oval-Copy-3" cx="310" cy="360" r="10"></circle>
            <circle id="Oval-Copy-4" cx="310" cy="110" r="10"></circle>
            <circle id="Oval-Copy-5" cx="310" cy="60" r="10"></circle>
            <circle id="Oval-Copy-6" cx="310" cy="460" r="10"></circle>
            <circle id="Oval-Copy-7" cx="310" cy="310" r="10"></circle>
            <circle id="Oval-Copy-8" cx="260" cy="260" r="10"></circle>
            <circle id="Oval-Copy-9" cx="310" cy="10" r="10"></circle>
            <circle id="Oval-Copy-10" cx="310" cy="260" r="10"></circle>
            <circle id="Oval-Copy-11" cx="310" cy="210" r="10"></circle>
            <circle id="Oval-Copy-12" cx="310" cy="160" r="10"></circle>
          </g>
          <circle id="Oval" fill="#E6332A" cx="185" cy="879" r="96"></circle>
          <circle id="Oval" fill="#E6332A" transform="translate(266.000000, 744.000000) scale(-1, 1) translate(-266.000000, -744.000000) " cx="266" cy="744" r="19"></circle>
        </g>
      </g>
    </g>
  </g>
</svg>
