<?xml version="1.0" encoding="UTF-8"?>
<svg xmlns="http://www.w3.org/2000/svg" xmlns:xlink="http://www.w3.org/1999/xlink" width="300px" height="450px" viewBox="0 0 300 450">
  <!-- Generator: Sketch 58 (84663) - https://sketch.com -->
  <title>Structure 2 Copy</title>
  <desc>Created with Sketch.</desc>
  <g id="FINAL" stroke="none" stroke-width="1" fill="none" fill-rule="evenodd">
    <g id="1440_Homepage_2" transform="translate(0.000000, -2046.000000)">
      <g id="Structure-2-Copy" transform="translate(150.000000, 2271.000000) scale(1, -1) translate(-150.000000, -2271.000000) translate(0.000000, 2046.000000)">
        <path d="M225,225 C225,307.84275 157.84275,375 75,375 C-7.84275,375 -75,307.84275 -75,225 L225,225 Z" id="Fill-1" fill="#E6332A" transform="translate(75.000000, 300.000000) rotate(90.000000) translate(-75.000000, -300.000000) "></path>
        <path d="M300,450 L150,450 C150,367.15725 217.15725,300 300,300 L300,450 Z" id="Fill-3" fill-opacity="0.5" fill="#E6332A" transform="translate(225.000000, 375.000000) rotate(90.000000) translate(-225.000000, -375.000000) "></path>
        <path d="M150,0.02025 C232.84275,0.02025 300,67.1775 300,150.02025 C300,232.863 232.84275,300.02025 150,300.02025 L150,0.02025 Z" id="Fill-5" fill="#1D1F30"></path>
        <path d="M0,0.02025 C82.84275,0.02025 150,67.1775 150,150.02025 C150,232.863 82.84275,300.02025 0,300.02025 L0,0.02025 Z" id="Fill-5-Copy" fill-opacity="0.5" fill="#1D1F30" transform="translate(75.000000, 150.020250) scale(-1, 1) translate(-75.000000, -150.020250) "></path>
      </g>
    </g>
  </g>
</svg>
