<?xml version="1.0" encoding="UTF-8"?>
<svg xmlns="http://www.w3.org/2000/svg" xmlns:xlink="http://www.w3.org/1999/xlink" width="556px" height="833px" viewBox="0 0 556 833" version="1.1">
  <!-- Generator: Sketch 58 (84663) - https://sketch.com -->
  <title>SYMBOL</title>
  <desc>Created with Sketch.</desc>
  <g id="FINAL" stroke="none" stroke-width="1" fill="none" fill-rule="evenodd">
    <g id="Contact_1440" transform="translate(-683.000000, -273.000000)">
      <g id="SYMBOL" transform="translate(683.000000, 273.000000)">
        <path d="M278,0 C124.459894,0 0,124.465411 0,277.996446 C0,431.534589 124.459894,556 278,556 C431.540106,556 556,431.534589 556,277.996446 C556,124.465411 431.540106,0 278,0 M278.559356,140.957746 C354.429347,140.957746 416.160966,202.682243 416.160966,278.552234 C416.160966,354.429347 354.429347,416.160966 278.559356,416.160966 C202.689366,416.160966 140.957746,354.429347 140.957746,278.552234 C140.957746,202.682243 202.689366,140.957746 278.559356,140.957746" id="Fill-11" fill="#252739"></path>
        <path d="M264.5,684.657166 C220.889102,684.657166 178.776402,678.075811 139,666 L155.606258,822.550788 C190.910319,829.312043 227.274984,833 264.5,833 C301.725016,833 338.089681,829.312043 373.393742,822.550788 L390,666 C350.223598,678.075811 308.110898,684.657166 264.5,684.657166" id="Fill-12" fill="#E6332A"></path>
      </g>
    </g>
  </g>
</svg>
