<?xml version="1.0" encoding="UTF-8"?>
<svg xmlns="http://www.w3.org/2000/svg" xmlns:xlink="http://www.w3.org/1999/xlink" width="893px" height="1012px" viewBox="0 0 893 1012" version="1.1">
  <!-- Generator: Sketch 58 (84663) - https://sketch.com -->
  <title>Group 9</title>
  <desc>Created with Sketch.</desc>
  <g id="FINAL" stroke="none" stroke-width="1" fill="none" fill-rule="evenodd">
    <g id="Group-9">
      <path d="M738.220832,217 C632.323832,292.062 500.711832,400.809 310.396832,348.239 C129.467832,298.262 -5.58716806,398.32 0.177831941,557.942 C6.10683194,722.117 127.818233,860 741.34205,862 L738.220832,217 Z" id="Fill-1" fill="#1D1F30"></path>
      <g id="Fill-3-+-Fill-1-Mask" transform="translate(500.000000, 712.000000)">
        <g id="Structure-2" transform="translate(196.500000, 150.000000) scale(-1, 1) translate(-196.500000, -150.000000) ">
          <circle id="Oval" fill="#1D1F30" transform="translate(378.500000, 225.500000) scale(-1, 1) translate(-378.500000, -225.500000) " cx="378.5" cy="225.5" r="14.5"></circle>
          <path d="M300,0 C300,82.84275 232.84275,150 150,150 C67.15725,150 0,82.84275 0,0 L300,0 Z" id="Fill-1" fill="#E6332A" transform="translate(150.000000, 75.000000) rotate(-180.000000) translate(-150.000000, -75.000000) "></path>
          <path d="M300,300 L150,300 C150,217.15725 217.15725,150 300,150 L300,300 Z" id="Fill-3" fill-opacity="0.5" fill="#E6332A" transform="translate(225.000000, 225.000000) rotate(-180.000000) translate(-225.000000, -225.000000) "></path>
        </g>
      </g>
      <g id="shapes" transform="translate(371.000000, 0.000000)" fill="#E6332A">
        <circle id="Oval" fill-opacity="0.5" cx="15" cy="15" r="15"></circle>
        <circle id="Oval" cx="138" cy="125" r="92"></circle>
      </g>
    </g>
  </g>
</svg>
